# xmcd
#
# Track frame offsets:
#	150
#	12684
#	37948
#	50841
#	63836
#	77246
#	93177
#	107701
#	120718
#	134194
#	150065
#	161329
#	178127
#	189846
#	204265
#	219101
#	232339
#	244133
#	256824
#	267718
#
# Disc length: 3729 seconds
#
# Revision: 1
# Processed by: cddbd v1.5.1PL0 Copyright (c) Steve Scherf et al.
# Submitted via: audiograbber 1.83.01
#
DISCID=140e8f14
DTITLE=The Cate Brothers - Arkansas Soul Siblings 
DYEAR=1999
DGENRE=Blues
TTITLE0=Yield Not To Temptation
TTITLE1=Friendship Train
TTITLE2=God Gave Me A Woman
TTITLE3=We All Got To Help Each Other
TTITLE4=Don't Cry No More
TTITLE5=You're Worth It All
TTITLE6=Rescue Me
TTITLE7=What Makes The World Turn
TTITLE8=Yes Indeed
TTITLE9=Born To Wander
TTITLE10=Let's Start All Over
TTITLE11=Let It Be
TTITLE12=Living On A Country Side
TTITLE13=Can't Live Alone
TTITLE14=I Made Up My Mind
TTITLE15=Always Waiting
TTITLE16=Can't Change My Heart
TTITLE17=When Love Comes
TTITLE18=Think About Your Fellow Man
TTITLE19=I Got To Be Your Man
EXTD=Crazy Cajun Recordings
EXTT0=
EXTT1=
EXTT2=
EXTT3=
EXTT4=
EXTT5=
EXTT6=
EXTT7=
EXTT8=
EXTT9=
EXTT10=
EXTT11=
EXTT12=
EXTT13=
EXTT14=
EXTT15=
EXTT16=
EXTT17=
EXTT18=
EXTT19=
PLAYORDER=
